<svg xmlns="http://www.w3.org/2000/svg" xmlns:xlink="http://www.w3.org/1999/xlink" viewBox="0 0 955.42 874.55"><defs><style>.cls-1,.cls-10,.cls-11,.cls-12,.cls-13,.cls-14,.cls-15,.cls-16,.cls-17,.cls-18,.cls-2,.cls-20,.cls-21,.cls-22,.cls-23,.cls-24,.cls-25,.cls-26,.cls-27,.cls-3,.cls-4,.cls-7,.cls-8,.cls-9{fill-rule:evenodd;}.cls-1{fill:url(#linear-gradient);}.cls-2{fill:#050606;}.cls-3{fill:#323333;}.cls-4{fill:#1e1d1d;}.cls-5{fill:#191a1c;}.cls-6{fill:#898989;}.cls-7{fill:#676868;}.cls-8{fill:#535454;}.cls-10,.cls-9{fill:#141140;}.cls-9{stroke:#141140;}.cls-13,.cls-23,.cls-25,.cls-26,.cls-9{stroke-miterlimit:10;}.cls-11{fill:#0f1121;}.cls-12{fill:#818181;}.cls-13,.cls-23{fill:none;}.cls-13{stroke:#202020;}.cls-13,.cls-23,.cls-25,.cls-26{stroke-width:1.86px;}.cls-14{fill:#eeaf3b;}.cls-15{fill:#f2ae3d;}.cls-16{fill:#d8d9d9;}.cls-17{fill:#d7d8d7;}.cls-18{fill:#323232;}.cls-19{fill:#dad9d9;}.cls-20{fill:#7e7f7f;}.cls-21{fill:#f3f1ec;}.cls-22{fill:#d8d7d6;}.cls-23{stroke:#bab8b8;}.cls-24{fill:#303131;}.cls-25{fill:#dcdbdb;}.cls-25,.cls-26{stroke:#171717;}.cls-26{fill:#171717;}.cls-27{fill:url(#linear-gradient-2);}</style><linearGradient id="linear-gradient" x1="63.79" y1="638.45" x2="723.73" y2="638.45" gradientUnits="userSpaceOnUse"><stop offset="0.38" stop-color="#dadada"/><stop offset="0.72" stop-color="#dcdcdc"/><stop offset="0.84" stop-color="#e3e3e3"/><stop offset="0.93" stop-color="#eee"/><stop offset="1" stop-color="#fff"/></linearGradient><linearGradient id="linear-gradient-2" x1="36.57" y1="506.75" x2="36.57" y2="262.72" gradientUnits="userSpaceOnUse"><stop offset="0" stop-color="#d2d3d3"/><stop offset="0.76" stop-color="#fff"/></linearGradient></defs><g id="Layer_2" data-name="Layer 2"><g id="Layer_1-2" data-name="Layer 1"><polygon class="cls-1" points="65.36 402.34 79.62 411.63 721.11 765.39 721.11 850.31 702.69 874.55 68.93 506.75 51.26 460.17 65.36 402.34"/><polygon class="cls-2" points="570.74 763.6 577.62 759.4 653.98 757.3 659.27 755.64 657.1 738.64 610.58 709.3 598.27 704.66 578.19 713.21 561.08 734.16 570.74 763.6"/><polygon class="cls-2" points="352.51 635.69 359.39 631.49 435.76 629.38 441.05 627.73 438.88 610.73 392.36 581.39 380.05 576.75 359.96 585.3 342.85 606.24 352.51 635.69"/><polygon class="cls-2" points="133.12 509.32 140 505.13 216.37 503.02 221.65 501.36 219.49 484.36 172.97 455.02 160.66 450.38 140.57 458.93 123.46 479.88 133.12 509.32"/><path class="cls-3" d="M88.8,417v46.4s-5,15.47,6.58,23.2,38,22.77,38,22.77l1.6-29.89s8.37-25.24,22.66-22.52,4-13.29,4-13.29Z"/><path class="cls-3" d="M217,491.36s25.85,44.23,22.08,80l113,65.39v-22s2.73-29.29,23.89-31.19-12.56-25.51-12.56-25.51Z"/><polygon class="cls-4" points="437.83 704.66 461.86 688.45 453.45 645.18 442.55 626.33 436.24 613.05 426.74 613.05 430.88 635.32 442.93 658.86 443.51 681.96 437.58 700.38 437.83 704.66"/><ellipse class="cls-5" cx="406.13" cy="649.44" rx="37.72" ry="63.67" transform="translate(-268.41 286.53) rotate(-29.7)"/><ellipse class="cls-6" cx="404.98" cy="650.48" rx="25.7" ry="43.44" transform="translate(-288.5 324.58) rotate(-32.92)"/><polygon class="cls-4" points="657.39 831.99 687.57 816.14 677 773.8 663.31 755.36 655.39 742.37 643.46 742.37 648.67 764.15 663.79 787.18 664.51 809.79 657.07 827.8 657.39 831.99"/><ellipse class="cls-5" cx="622.86" cy="778.76" rx="37.72" ry="63.67" transform="translate(-304.02 410.89) rotate(-29.7)"/><ellipse class="cls-6" cx="621.7" cy="779.79" rx="25.7" ry="43.44" transform="translate(-323.98 463.13) rotate(-32.92)"/><path class="cls-7" d="M419.87,674c-7.87,4.91-21-1.54-29.48-14.55s-9.14-28-1.28-33.16c-5.68,3.79-3.36,17.47,5.2,30.58C402.75,669.84,414.09,677.42,419.87,674Z"/><path class="cls-8" d="M420.3,673.77a1.25,1.25,0,0,1-.17.12l-.26.14c-5.78,3.39-17.12-4.19-25.56-17.13-8.56-13.11-10.88-26.79-5.2-30.58h0c7.86-5.17,21.17,1.28,29.73,14.39S428,668.46,420.3,673.77Z"/><polygon class="cls-4" points="218.18 576.75 242.21 560.54 233.8 517.26 222.9 498.41 216.59 485.14 207.09 485.14 211.23 507.4 223.28 530.94 223.85 554.05 217.92 572.47 218.18 576.75"/><ellipse class="cls-5" cx="186.48" cy="521.53" rx="37.72" ry="63.67" transform="translate(-233.89 160.9) rotate(-29.7)"/><ellipse class="cls-6" cx="185.33" cy="522.56" rx="25.7" ry="43.44" transform="translate(-254.25 184.65) rotate(-32.92)"/><path class="cls-7" d="M200.22,546.11c-7.88,4.92-21-1.53-29.49-14.55s-9.13-28-1.27-33.15c-5.69,3.79-3.36,17.46,5.2,30.58C183.09,541.93,194.43,549.51,200.22,546.11Z"/><path class="cls-8" d="M200.64,545.86l-.16.12a1.58,1.58,0,0,1-.26.13c-5.79,3.4-17.13-4.18-25.56-17.12-8.56-13.12-10.89-26.79-5.2-30.58h0c7.86-5.18,21.17,1.28,29.72,14.39S208.3,540.55,200.64,545.86Z"/><polygon class="cls-9" points="73.14 150.45 466.42 380.1 721.46 230.67 327.06 0.58 73.14 150.45"/><polygon class="cls-10" points="73.14 150.45 73.14 407.87 465.1 635.32 465.1 380.1 73.14 150.45"/><polygon class="cls-11" points="465.1 635.32 481.84 626.25 481.84 435.7 706.16 305.08 721.46 314.79 721.46 230.67 465.1 380.1 465.1 635.32"/><path class="cls-12" d="M721.11,765.39l9,5L953.9,639.59l-1.34,89L738.32,854.54s-4,3.12-17.21-4.23S721.11,765.39,721.11,765.39Z"/><path class="cls-3" d="M721.11,765.39v84.92L675.8,825.07l-2-1.2c6.4-17.89,1.19-45.4-15.12-70.72-22.09-34.27-56.14-51.53-76.07-38.55-12.89,8.4-16.71,27.37-11.83,49l-.68-.39-113-65.65C463,664.46,435.27,618,435.27,618l29.83,17.32,16.74-9.07,29.77,17.32L616,704.25l.1,0Z"/><path class="cls-13" d="M511.61,643.56v46.78l51.67,30s10.63-37.92,52.78-16.07"/><polygon class="cls-14" points="943.97 673.24 955.42 667.32 955.42 696.94 943.97 703.88 943.97 673.24"/><polygon class="cls-15" points="739.33 791.9 739.33 822.38 751.45 815.6 751.45 786.15 739.33 791.9"/><polygon class="cls-3" points="893.13 711.44 797.56 767.3 816.07 778.7 886.08 737.23 893.13 711.44"/><path class="cls-16" d="M751.45,786.15s48.3-36.9,64.62-7.45l-64.62,36.9Z"/><path class="cls-17" d="M944,673.24s-63.11,27.26-57.89,64L944,703.88Z"/><polygon class="cls-18" points="818.76 785.47 818.76 795.46 876.15 762.79 876.15 751.96 818.76 785.47"/><ellipse class="cls-19" cx="751.33" cy="829.98" rx="6.39" ry="4.21" transform="translate(-239.77 1350.65) rotate(-75.56)"/><ellipse class="cls-19" cx="943.51" cy="718.21" rx="6.47" ry="4.02" transform="translate(-50.52 1364.69) rotate(-70.32)"/><path class="cls-18" d="M919.73,736.41l-10.81,6.28a3.58,3.58,0,0,1-4.87-1.31h0a3.62,3.62,0,0,1,1.3-4.9l10.82-6.28a3.56,3.56,0,0,1,4.86,1.31h0A3.61,3.61,0,0,1,919.73,736.41Z"/><path class="cls-18" d="M791,812.57l-10.82,6.28a3.56,3.56,0,0,1-4.86-1.31h0a3.61,3.61,0,0,1,1.3-4.9l10.81-6.28a3.58,3.58,0,0,1,4.87,1.31h0A3.62,3.62,0,0,1,791,812.57Z"/><path class="cls-20" d="M878.34,497.17V480a6.94,6.94,0,0,1,3.54-7,70.35,70.35,0,0,1,7.51-4.12s4.44-1.72,4.44,1.54v26.8s.34,6-2.56,7.7-9.9,5.49-9.9,5.49Z"/><path class="cls-21" d="M739.33,765,953.9,639.59V627S953.57,609.67,944,598s-62.14-78.78-68.09-109.37S856.38,405.9,831.26,389s-125.1-83.87-125.1-83.87l-216.37,126,33.3,31.68,103.44,67.14,18.18,41.56,19.49,74.46L719.73,727l15.86,32.24Z"/><path class="cls-22" d="M739.33,765l-1.64-19.89s-3.75-16.3-19.31-33.63-49-65.44-54.46-80.23-16.71-95.93-39.76-110.71-134.37-89.43-134.37-89.43l-8,4.63V626.25L730.11,770.34Z"/><path class="cls-23" d="M651.38,724.65l1.78-78.9-19.22-73.29s-8.27-33.29-32.83-46.18S526.38,482,526.38,482s-14.85-12.61-14.77,10.48,0,151.11,0,151.11"/><polygon class="cls-24" points="515.98 576.13 517.61 585.67 535.43 596.37 537.83 589.63 515.98 576.13"/><path class="cls-25" d="M663.4,511.43s-21.26,8.05-16.23,33.8S663.4,618,663.4,618s2.28,15,17.83,5.4S863.63,517,863.63,517s6.4-2.53,3.88-13.34-14.17-59.77-14.17-59.77-15.08-34.72-42.74-18.62S663.4,511.43,663.4,511.43Z"/><path class="cls-25" d="M525.3,490.52s-9.06-8.34-9.32,3.13S516,551,516,551s1.55,9.9,9.32,14.07,110.92,68.29,110.92,68.29l7-3.12s-10.88-80.55-43.27-98S525.3,490.52,525.3,490.52Z"/><polygon class="cls-26" points="600.46 533.91 600.46 610.37 604.38 613.19 605.13 536.73 600.46 533.91"/><path class="cls-20" d="M620.45,628.78s0-5.07,3.36-6.76,7.84-4,7.84-4,3.55-2.56,3.74,1.77,0,28,0,28,.75,4.88-1.49,6.2-10.09,6.39-10.09,6.39-3.36,1.69-3.36-3.57Z"/><polygon class="cls-27" points="0 304.63 73.14 262.72 68.93 506.75 0 466.23 0 304.63"/></g></g></svg>