<svg xmlns="http://www.w3.org/2000/svg" xmlns:xlink="http://www.w3.org/1999/xlink" viewBox="0 0 987.22 721.38"><defs><style>.cls-1{fill:#be2a27;}.cls-1,.cls-14,.cls-15,.cls-16,.cls-17,.cls-18,.cls-19,.cls-2,.cls-20,.cls-21,.cls-22,.cls-23,.cls-24,.cls-27,.cls-28,.cls-30,.cls-31,.cls-32,.cls-33,.cls-35,.cls-36,.cls-37,.cls-38,.cls-40,.cls-41,.cls-5,.cls-6,.cls-7,.cls-8{fill-rule:evenodd;}.cls-2,.cls-3{fill:#a12424;}.cls-4{fill:#f3f1ec;}.cls-5{fill:#141140;}.cls-6{fill:#11112b;}.cls-7{fill:#bb2026;}.cls-8,.cls-9{fill:#999a9a;}.cls-10{fill:#c8c8c8;}.cls-11{fill:#181818;}.cls-12{fill:#414340;}.cls-13{fill:#1d1a1a;}.cls-14{fill:#121212;}.cls-15{fill:#050606;}.cls-16{fill:#262626;}.cls-17{fill:#4f4f4f;}.cls-18{fill:#40403e;}.cls-19{fill:url(#linear-gradient);}.cls-20{fill:#e9656b;}.cls-21{fill:#db5552;}.cls-22{fill:#c95b68;}.cls-23,.cls-32{fill:#0b1f41;}.cls-24,.cls-33{fill:#12274b;}.cls-25,.cls-26,.cls-34{fill:none;stroke-linecap:round;}.cls-25{stroke:#f48287;}.cls-25,.cls-26,.cls-31,.cls-32,.cls-33,.cls-34,.cls-35,.cls-36,.cls-37,.cls-38,.cls-39,.cls-40,.cls-41{stroke-miterlimit:10;}.cls-25,.cls-26{stroke-width:2.91px;}.cls-26{stroke:#ed6a6b;}.cls-27{fill:#f48287;}.cls-28,.cls-29,.cls-38,.cls-39{fill:#bac1cc;}.cls-30,.cls-40{fill:#ccd2dd;}.cls-31{fill:#3c54a4;}.cls-31,.cls-32,.cls-33,.cls-34,.cls-35,.cls-36,.cls-37,.cls-38,.cls-39,.cls-40,.cls-41{stroke:#768cc6;}.cls-34{stroke-width:4px;}.cls-35{fill:#427188;}.cls-36{fill:#7fbbe6;}.cls-37{fill:#5f9cc1;}.cls-41{fill:#3b54a4;}</style><linearGradient id="linear-gradient" x1="102.54" y1="384.72" x2="106.56" y2="384.72" gradientUnits="userSpaceOnUse"><stop offset="0.31" stop-color="#999a9a"/><stop offset="1" stop-color="#6d6e71"/></linearGradient></defs><g id="Layer_2" data-name="Layer 2"><g id="Layer_1-2" data-name="Layer 1"><path class="cls-1" d="M4,460.61l-4-3.43V441S206.37,580.45,241.46,565.21s496.21-255,586-326.64c0,0,162.84-93.09,159.74-144.75,0,0-3.19,38.63-10.55,44.1l-9.27,15.81L818.14,318.22,255.74,600.65,212.3,602.7,86.38,539.89,6.25,474.73Z"/><path class="cls-2" d="M241.46,565.21,245,580.05l-8.92,14.43-44.61-12.62L10.36,468.57,0,457.18V441S205.46,579.67,241.46,565.21Z"/><polygon class="cls-3" points="214.33 560.04 241.46 565.21 241.46 571.24 222.01 575.4 209.53 564.52 214.33 560.04"/><polygon class="cls-4" points="21.42 441.02 206.04 547.24 230.52 558.66 406.55 471.61 770.4 265 933.02 148.3 966.66 113.86 976.62 75.89 955.97 42.83 869.88 16.29 738.84 34.47 21.42 441.02"/><path class="cls-5" d="M230.52,587.12s642.66-311.49,746.1-449.2c0,0-79.38,211.07-108.25,230.32S259.12,724.61,233.6,721.36Z"/><path class="cls-6" d="M4,460.61S.09,600.11,78,648.12,138.46,686,138.46,686s197.12,126.52,92.06-98.84C230.52,587.12,197.77,591.64,4,460.61Z"/><polygon class="cls-1" points="260.56 550.57 551.01 390.56 558.41 405.82 267.88 565.89 244.93 578.41 239.13 558.66 260.56 550.57"/><path class="cls-2" d="M35,441s68.46-47,73.53-46.19-1.6,17.32-1.6,17.32l-60.21,37Z"/><polygon class="cls-1" points="829.01 228.61 983.18 101.67 985.61 107.53 953.47 157.37 842.21 242.99 829.01 228.61"/><polygon class="cls-7" points="671.51 65.88 274.75 296.16 286.91 307.15 673.3 81.61 671.51 65.88"/><path class="cls-8" d="M987.17,93.82c-3-47-9.95-54-53.7-75.85S790,8.91,790,8.91l-37.88,7.46s-68.82,19.22-87,29.89S247.93,289.52,247.93,289.52L106.56,371.68,0,441S194.22,576.57,241.46,565.21c0,0,538.14-275.41,586-326.64C827.43,238.57,990.19,140.86,987.17,93.82Zm-21.13,0s-2.88,18.88-24,37.17S827,216,809.39,226.64s-235.25,142-235.25,142l-229.4,128s-107.92,58.17-124,49.76S35,441,35,441l77.1-49.42,162.61-95.44L671.51,65.88,824.42,26.05S977.57,13.2,966,93.82Z"/><polygon class="cls-9" points="106.61 340.04 106.61 422 282.17 521.45 282.17 441.02 106.61 340.04"/><polygon class="cls-10" points="282.17 441.02 395.49 375.15 395.49 456.01 282.17 521.45 282.17 441.02"/><polygon class="cls-11" points="106.61 340.04 106.61 333.41 282.17 434.21 395.49 369.15 395.49 375.15 282.17 441.02 106.61 340.04"/><polygon class="cls-12" points="106.61 333.41 220.08 267.64 395.49 369.15 282.17 434.21 106.61 333.41"/><polygon class="cls-13" points="118.94 333.41 219.82 275.07 383.55 369.57 378.44 372.38 219.82 280.18 123.53 335.35 118.94 333.41"/><path class="cls-14" d="M281.13,300.1c0,4.45-2.63,8.54-7.07,11.81-6.27,4.62-16.12,7.6-27.19,7.6s-20.92-3-27.19-7.6c-4.44-3.27-7.07-7.36-7.07-11.81,0-10.72,15.34-19.42,34.26-19.42S281.13,289.38,281.13,300.1Z"/><path class="cls-15" d="M281.13,300.1v23.62c0,10.72-15.34,19.41-34.26,19.41s-34.26-8.69-34.26-19.41V300.1c0,4.45,2.63,8.54,7.07,11.81,6.27,4.62,16.12,7.6,27.19,7.6s20.92-3,27.19-7.6C278.5,308.64,281.13,304.55,281.13,300.1Z"/><path class="cls-16" d="M281.13,323.72v38.83c0,10.72-15.34,19.41-34.26,19.41s-34.26-8.69-34.26-19.41V323.72c0,10.72,15.34,19.41,34.26,19.41S281.13,334.44,281.13,323.72Z"/><path class="cls-17" d="M118.11,393.7s5.94-10.5,12.87,6.93v17.43s-4.95,9.83-12.87-5.94Z"/><polygon class="cls-18" points="144.06 381.96 144.06 400.83 162.87 411.72 162.87 392.71 144.06 381.96"/><polygon class="cls-18" points="144.06 411.72 144.06 430.74 162.87 441.02 162.87 422 144.06 411.72"/><polygon class="cls-18" points="176.14 400.23 176.14 420.24 194.39 430.74 194.39 411.72 176.14 400.23"/><polygon class="cls-18" points="176.14 430.74 176.14 449.18 194.39 459.45 194.39 440.24 176.14 430.74"/><polygon class="cls-18" points="207.83 418.65 207.83 437.87 227.04 448.3 227.04 428.75 207.83 418.65"/><polygon class="cls-18" points="207.83 448.3 207.83 467.38 227.04 478.07 227.04 459.45 207.83 448.3"/><polygon class="cls-18" points="239.13 437.07 239.13 456.29 258.93 467.57 258.93 448.3 239.13 437.07"/><polygon class="cls-18" points="239.13 466.39 239.13 486.19 258.93 496.49 258.93 478.07 239.13 466.39"/><polygon class="cls-18" points="314.98 433.48 314.98 451.33 334.19 441.02 334.19 421.62 314.98 433.48"/><polygon class="cls-18" points="347.46 413.7 347.46 433.48 366.68 421.62 366.68 402.61 347.46 413.7"/><polygon class="cls-18" points="314.98 471.54 314.98 490.55 334.19 480.25 334.19 460.61 314.98 471.54"/><polygon class="cls-18" points="347.46 452.32 347.46 471.93 366.68 460.61 366.68 442.22 347.46 452.32"/><polygon class="cls-19" points="106.56 371.68 106.56 395.36 102.54 397.75 102.54 374.51 106.56 371.68"/><polygon class="cls-20" points="667.51 64.08 778.33 0 835.63 33.04 724.46 97.43 667.51 64.08"/><polygon class="cls-21" points="724.46 97.43 724.46 162.76 835.63 99.02 835.63 33.04 724.46 97.43"/><polygon class="cls-22" points="667.51 64.08 724.46 97.43 724.46 162.76 667.51 130.43 667.51 64.08"/><polygon class="cls-23" points="835.63 99.02 835.63 103.51 724.46 167.44 724.46 162.76 835.63 99.02"/><polygon class="cls-24" points="724.46 167.44 667.51 134.54 667.51 130.43 724.46 162.76 724.46 167.44"/><line class="cls-25" x1="677.16" y1="64.08" x2="725.06" y2="91.64"/><line class="cls-25" x1="684.51" y1="59.86" x2="732.41" y2="87.43"/><line class="cls-25" x1="691.36" y1="55.44" x2="739.26" y2="83.01"/><line class="cls-25" x1="698.48" y1="51.45" x2="746.38" y2="79.02"/><line class="cls-25" x1="705.9" y1="47.46" x2="753.8" y2="75.02"/><line class="cls-25" x1="713.11" y1="43.36" x2="761.01" y2="70.92"/><line class="cls-25" x1="720.31" y1="39.17" x2="768.21" y2="66.74"/><line class="cls-25" x1="727.62" y1="34.93" x2="775.52" y2="62.5"/><line class="cls-25" x1="735.09" y1="30.84" x2="782.99" y2="58.41"/><line class="cls-25" x1="741.86" y1="26.54" x2="789.76" y2="54.11"/><line class="cls-25" x1="748.99" y1="22.12" x2="796.89" y2="49.69"/><line class="cls-25" x1="756.09" y1="18.18" x2="803.99" y2="45.75"/><line class="cls-25" x1="763.29" y1="13.75" x2="811.19" y2="41.31"/><line class="cls-25" x1="770.42" y1="9.65" x2="818.32" y2="37.22"/><line class="cls-25" x1="777.55" y1="5.47" x2="825.45" y2="33.04"/><line class="cls-26" x1="729.85" y1="99.02" x2="729.85" y2="154.94"/><line class="cls-26" x1="737.06" y1="94.89" x2="737.06" y2="150.81"/><line class="cls-26" x1="744.26" y1="91.64" x2="744.26" y2="147.56"/><line class="cls-26" x1="751.57" y1="87.43" x2="751.57" y2="143.34"/><line class="cls-26" x1="758.41" y1="82.76" x2="758.41" y2="138.68"/><line class="cls-26" x1="765.81" y1="78.26" x2="765.81" y2="134.17"/><line class="cls-26" x1="772.94" y1="75.02" x2="772.94" y2="130.94"/><line class="cls-26" x1="780.04" y1="70.92" x2="780.04" y2="126.84"/><line class="cls-26" x1="787.35" y1="65.93" x2="787.35" y2="121.85"/><line class="cls-26" x1="794.48" y1="62.5" x2="794.48" y2="118.41"/><line class="cls-26" x1="801.61" y1="57.5" x2="801.61" y2="113.42"/><line class="cls-26" x1="808.74" y1="54.11" x2="808.74" y2="110.03"/><line class="cls-26" x1="816.01" y1="49.9" x2="816.01" y2="105.82"/><line class="cls-26" x1="823.14" y1="45.68" x2="823.14" y2="101.6"/><line class="cls-26" x1="830.41" y1="41.27" x2="830.41" y2="97.18"/><polygon class="cls-21" points="673.29 73.46 673.29 80.17 692.63 91.38 692.63 84.38 673.29 73.46"/><polygon class="cls-27" points="673.29 73.46 671.39 72.16 671.39 81.1 673.29 80.17 673.29 73.46"/><polygon class="cls-20" points="671.39 81.1 692.63 93.19 692.63 91.38 673.29 80.17 671.39 81.1"/><polygon class="cls-21" points="673.29 89.92 673.29 96.63 692.63 107.83 692.63 100.84 673.29 89.92"/><polygon class="cls-27" points="673.29 89.92 671.39 88.61 671.39 97.56 673.29 96.63 673.29 89.92"/><polygon class="cls-20" points="671.39 97.56 692.63 109.65 692.63 107.83 673.29 96.63 671.39 97.56"/><polygon class="cls-21" points="673.29 105.71 673.29 112.42 692.63 123.63 692.63 116.63 673.29 105.71"/><polygon class="cls-27" points="673.29 105.71 671.39 104.41 671.39 113.36 673.29 112.42 673.29 105.71"/><polygon class="cls-20" points="671.39 113.36 692.63 125.44 692.63 123.63 673.29 112.42 671.39 113.36"/><polygon class="cls-21" points="673.29 122.28 673.29 128.99 692.63 140.2 692.63 133.2 673.29 122.28"/><polygon class="cls-27" points="673.29 122.28 671.39 120.98 671.39 129.93 673.29 128.99 673.29 122.28"/><polygon class="cls-20" points="671.39 129.93 692.63 142.01 692.63 140.2 673.29 128.99 671.39 129.93"/><polygon class="cls-21" points="701.69 89.43 701.69 96.14 721.03 107.34 721.03 100.35 701.69 89.43"/><polygon class="cls-27" points="701.69 89.43 699.79 88.13 699.79 97.07 701.69 96.14 701.69 89.43"/><polygon class="cls-20" points="699.79 97.07 721.03 109.16 721.03 107.34 701.69 96.14 699.79 97.07"/><polygon class="cls-21" points="701.69 105.88 701.69 112.59 721.03 123.79 721.03 116.8 701.69 105.88"/><polygon class="cls-27" points="701.69 105.88 699.79 104.58 699.79 113.52 701.69 112.59 701.69 105.88"/><polygon class="cls-20" points="699.79 113.52 721.03 125.61 721.03 123.79 701.69 112.59 699.79 113.52"/><polygon class="cls-21" points="701.69 121.68 701.69 128.39 721.03 139.59 721.03 132.6 701.69 121.68"/><polygon class="cls-27" points="701.69 121.68 699.79 120.38 699.79 129.32 701.69 128.39 701.69 121.68"/><polygon class="cls-20" points="699.79 129.32 721.03 141.41 721.03 139.59 701.69 128.39 699.79 129.32"/><polygon class="cls-21" points="701.69 138.25 701.69 144.96 721.03 156.16 721.03 149.17 701.69 138.25"/><polygon class="cls-27" points="701.69 138.25 699.79 136.95 699.79 145.89 701.69 144.96 701.69 138.25"/><polygon class="cls-20" points="699.79 145.89 721.03 157.98 721.03 156.16 701.69 144.96 699.79 145.89"/><polygon class="cls-28" points="673.29 84.81 673.29 87.59 678.22 90.5 678.22 87.49 673.29 84.81"/><polygon class="cls-28" points="673.29 117.53 673.29 120.31 678.22 123.22 678.22 120.22 673.29 117.53"/><polygon class="cls-28" points="685.55 91.38 685.55 94.16 690.48 97.07 690.48 94.06 685.55 91.38"/><polygon class="cls-28" points="685.55 124.1 685.55 126.88 690.48 129.79 690.48 126.78 685.55 124.1"/><polygon class="cls-28" points="701.69 100.47 701.69 103.25 706.62 106.16 706.62 103.16 701.69 100.47"/><polygon class="cls-28" points="701.69 133.19 701.69 135.97 706.62 138.88 706.62 135.88 701.69 133.19"/><polygon class="cls-28" points="714.05 106.97 714.05 109.75 718.98 112.66 718.98 109.65 714.05 106.97"/><polygon class="cls-28" points="714.05 139.69 714.05 142.47 718.98 145.38 718.98 142.37 714.05 139.69"/><ellipse class="cls-29" cx="675.7" cy="76.82" rx="1.45" ry="0.99"/><path class="cls-30" d="M677.16,76.82v54.42c0,.55-.66,1-1.46,1s-1.45-.44-1.45-1V76.82c0,.55.65,1,1.45,1S677.16,77.37,677.16,76.82Z"/><ellipse class="cls-29" cx="688.01" cy="83.44" rx="1.45" ry="0.99"/><ellipse class="cls-29" cx="703.92" cy="92.37" rx="1.45" ry="0.99"/><path class="cls-30" d="M705.37,92.37v54.42c0,.55-.65,1-1.45,1s-1.45-.44-1.45-1V92.37c0,.55.65,1,1.45,1S705.37,92.92,705.37,92.37Z"/><path class="cls-28" d="M717.68,99c0,.55-.65,1-1.45,1s-1.46-.44-1.46-1,.66-1,1.46-1S717.68,98.44,717.68,99Z"/><path class="cls-30" d="M689.46,83.44v54.42c0,.55-.64,1-1.45,1s-1.45-.45-1.45-1V83.44c0,.55.65,1,1.45,1S689.46,84,689.46,83.44Z"/><path class="cls-30" d="M717.68,99v54.42c0,.55-.65,1-1.45,1s-1.46-.44-1.46-1V99c0,.55.66,1,1.46,1S717.68,99.54,717.68,99Z"/><polygon class="cls-31" points="742.43 109.68 853.26 45.6 910.55 78.64 799.39 143.03 742.43 109.68"/><polygon class="cls-31" points="799.39 143.03 799.39 208.36 910.55 144.62 910.55 78.64 799.39 143.03"/><polygon class="cls-31" points="742.43 109.68 799.39 143.03 799.39 208.36 742.43 176.03 742.43 109.68"/><polygon class="cls-32" points="910.55 144.62 910.55 149.11 799.39 213.04 799.39 208.36 910.55 144.62"/><polygon class="cls-33" points="799.39 213.04 742.43 180.14 742.43 176.03 799.39 208.36 799.39 213.04"/><line class="cls-34" x1="752.08" y1="109.68" x2="799.98" y2="137.24"/><line class="cls-34" x1="759.44" y1="105.46" x2="807.34" y2="133.03"/><line class="cls-34" x1="766.28" y1="101.04" x2="814.18" y2="128.61"/><line class="cls-34" x1="773.41" y1="97.05" x2="821.31" y2="124.62"/><line class="cls-34" x1="780.82" y1="93.06" x2="828.72" y2="120.62"/><line class="cls-34" x1="788.04" y1="88.96" x2="835.93" y2="116.52"/><line class="cls-34" x1="795.23" y1="84.77" x2="843.13" y2="112.34"/><line class="cls-34" x1="802.54" y1="80.53" x2="850.44" y2="108.1"/><line class="cls-34" x1="810.01" y1="76.44" x2="857.91" y2="104.01"/><line class="cls-34" x1="816.79" y1="72.14" x2="864.69" y2="99.71"/><line class="cls-34" x1="823.91" y1="67.72" x2="871.81" y2="95.29"/><line class="cls-34" x1="831.02" y1="63.78" x2="878.92" y2="91.35"/><line class="cls-34" x1="838.22" y1="59.35" x2="886.12" y2="86.91"/><line class="cls-34" x1="845.35" y1="55.25" x2="893.24" y2="82.82"/><line class="cls-34" x1="852.47" y1="51.07" x2="900.37" y2="78.64"/><line class="cls-34" x1="804.77" y1="144.62" x2="804.77" y2="200.54"/><line class="cls-34" x1="811.99" y1="140.49" x2="811.99" y2="196.41"/><line class="cls-34" x1="819.18" y1="137.24" x2="819.18" y2="193.16"/><line class="cls-34" x1="826.49" y1="133.03" x2="826.49" y2="188.94"/><line class="cls-34" x1="833.34" y1="128.36" x2="833.34" y2="184.28"/><line class="cls-34" x1="840.74" y1="123.86" x2="840.74" y2="179.77"/><line class="cls-34" x1="847.86" y1="120.62" x2="847.86" y2="176.54"/><line class="cls-34" x1="854.97" y1="116.52" x2="854.97" y2="172.44"/><line class="cls-34" x1="862.28" y1="111.53" x2="862.28" y2="167.45"/><line class="cls-34" x1="869.41" y1="108.1" x2="869.41" y2="164.01"/><line class="cls-34" x1="876.54" y1="103.1" x2="876.54" y2="159.02"/><line class="cls-34" x1="883.66" y1="99.71" x2="883.66" y2="155.63"/><line class="cls-34" x1="890.93" y1="95.5" x2="890.93" y2="151.42"/><line class="cls-34" x1="895.67" y1="88.57" x2="895.67" y2="144.48"/><line class="cls-34" x1="905.33" y1="86.87" x2="905.33" y2="142.78"/><polygon class="cls-35" points="748.22 119.06 748.22 125.77 767.56 136.98 767.56 129.98 748.22 119.06"/><polygon class="cls-36" points="748.22 119.06 746.31 117.76 746.31 126.7 748.22 125.77 748.22 119.06"/><polygon class="cls-37" points="746.31 126.7 767.56 138.79 767.56 136.98 748.22 125.77 746.31 126.7"/><polygon class="cls-35" points="748.22 135.52 748.22 142.22 767.56 153.43 767.56 146.44 748.22 135.52"/><polygon class="cls-36" points="748.22 135.52 746.31 134.22 746.31 143.16 748.22 142.22 748.22 135.52"/><polygon class="cls-37" points="746.31 143.16 767.56 155.25 767.56 153.43 748.22 142.22 746.31 143.16"/><polygon class="cls-35" points="748.22 151.31 748.22 158.02 767.56 169.23 767.56 162.23 748.22 151.31"/><polygon class="cls-36" points="748.22 151.31 746.31 150.01 746.31 158.96 748.22 158.02 748.22 151.31"/><polygon class="cls-37" points="746.31 158.96 767.56 171.04 767.56 169.23 748.22 158.02 746.31 158.96"/><polygon class="cls-35" points="748.22 167.88 748.22 174.59 767.56 185.8 767.56 178.8 748.22 167.88"/><polygon class="cls-36" points="748.22 167.88 746.31 166.58 746.31 175.53 748.22 174.59 748.22 167.88"/><polygon class="cls-37" points="746.31 175.53 767.56 187.62 767.56 185.8 748.22 174.59 746.31 175.53"/><polygon class="cls-35" points="776.62 135.03 776.62 141.74 795.96 152.94 795.96 145.95 776.62 135.03"/><polygon class="cls-36" points="776.62 135.03 774.72 133.72 774.72 142.67 776.62 141.74 776.62 135.03"/><polygon class="cls-37" points="774.72 142.67 795.96 154.76 795.96 152.94 776.62 141.74 774.72 142.67"/><polygon class="cls-35" points="776.62 151.48 776.62 158.19 795.96 169.4 795.96 162.4 776.62 151.48"/><polygon class="cls-36" points="776.62 151.48 774.72 150.18 774.72 159.12 776.62 158.19 776.62 151.48"/><polygon class="cls-37" points="774.72 159.12 795.96 171.21 795.96 169.4 776.62 158.19 774.72 159.12"/><polygon class="cls-35" points="776.62 167.28 776.62 173.99 795.96 185.19 795.96 178.2 776.62 167.28"/><polygon class="cls-36" points="776.62 167.28 774.72 165.98 774.72 174.92 776.62 173.99 776.62 167.28"/><polygon class="cls-37" points="774.72 174.92 795.96 187.01 795.96 185.19 776.62 173.99 774.72 174.92"/><polygon class="cls-35" points="776.62 183.85 776.62 190.56 795.96 201.76 795.96 194.77 776.62 183.85"/><polygon class="cls-36" points="776.62 183.85 774.72 182.55 774.72 191.49 776.62 190.56 776.62 183.85"/><polygon class="cls-37" points="774.72 191.49 795.96 203.58 795.96 201.76 776.62 190.56 774.72 191.49"/><polygon class="cls-38" points="748.22 130.41 748.22 133.19 753.14 136.1 753.14 133.09 748.22 130.41"/><polygon class="cls-38" points="748.22 163.13 748.22 165.91 753.14 168.82 753.14 165.82 748.22 163.13"/><polygon class="cls-38" points="760.47 136.98 760.47 139.76 765.4 142.67 765.4 139.66 760.47 136.98"/><polygon class="cls-38" points="760.47 169.7 760.47 172.48 765.4 175.39 765.4 172.38 760.47 169.7"/><polygon class="cls-38" points="776.62 146.07 776.62 148.85 781.55 151.76 781.55 148.76 776.62 146.07"/><polygon class="cls-38" points="776.62 178.79 776.62 181.57 781.55 184.48 781.55 181.48 776.62 178.79"/><polygon class="cls-38" points="788.98 152.57 788.98 155.35 793.91 158.26 793.91 155.25 788.98 152.57"/><polygon class="cls-38" points="788.98 185.29 788.98 188.07 793.91 190.98 793.91 187.97 788.98 185.29"/><ellipse class="cls-39" cx="750.63" cy="122.42" rx="1.45" ry="0.99"/><path class="cls-40" d="M752.08,122.42v54.42c0,.55-.65,1-1.45,1s-1.45-.44-1.45-1V122.42c0,.55.65,1,1.45,1S752.08,123,752.08,122.42Z"/><ellipse class="cls-39" cx="762.94" cy="129.04" rx="1.45" ry="0.99"/><ellipse class="cls-39" cx="778.84" cy="137.97" rx="1.45" ry="0.99"/><path class="cls-40" d="M780.3,138v54.42c0,.55-.66,1-1.46,1s-1.45-.44-1.45-1V138c0,.55.65,1,1.45,1S780.3,138.52,780.3,138Z"/><path class="cls-38" d="M792.6,144.59c0,.55-.64,1-1.45,1s-1.45-.44-1.45-1,.65-1,1.45-1S792.6,144,792.6,144.59Z"/><path class="cls-40" d="M764.39,129v54.42c0,.55-.65,1-1.45,1s-1.46-.45-1.46-1V129c0,.55.66,1,1.46,1S764.39,129.59,764.39,129Z"/><path class="cls-40" d="M792.6,144.59V199c0,.55-.64,1-1.45,1s-1.45-.44-1.45-1V144.59c0,.55.65,1,1.45,1S792.6,145.14,792.6,144.59Z"/><polygon class="cls-41" points="729.05 172.04 618.23 107.96 560.93 141 672.1 205.39 729.05 172.04"/><polygon class="cls-41" points="672.1 205.39 672.1 270.73 560.93 206.99 560.93 141 672.1 205.39"/><polygon class="cls-41" points="729.05 172.04 672.1 205.39 672.1 270.73 729.05 238.39 729.05 172.04"/><polygon class="cls-32" points="560.93 206.99 560.93 211.47 672.1 275.4 672.1 270.73 560.93 206.99"/><polygon class="cls-33" points="672.1 275.4 729.05 242.5 729.05 238.39 672.1 270.73 672.1 275.4"/><line class="cls-34" x1="719.41" y1="172.04" x2="671.51" y2="199.61"/><line class="cls-34" x1="712.05" y1="167.82" x2="664.15" y2="195.39"/><line class="cls-34" x1="705.21" y1="163.4" x2="657.31" y2="190.97"/><line class="cls-34" x1="698.08" y1="159.41" x2="650.18" y2="186.98"/><line class="cls-34" x1="690.67" y1="155.42" x2="642.77" y2="182.99"/><line class="cls-34" x1="683.45" y1="151.32" x2="635.55" y2="178.89"/><line class="cls-34" x1="676.26" y1="147.13" x2="628.36" y2="174.7"/><line class="cls-34" x1="668.94" y1="142.89" x2="621.05" y2="170.46"/><line class="cls-34" x1="661.47" y1="138.8" x2="613.58" y2="166.37"/><line class="cls-34" x1="654.7" y1="134.51" x2="606.8" y2="162.07"/><line class="cls-34" x1="647.57" y1="130.09" x2="599.68" y2="157.65"/><line class="cls-34" x1="640.47" y1="126.14" x2="592.57" y2="153.71"/><line class="cls-34" x1="633.27" y1="121.71" x2="585.37" y2="149.28"/><line class="cls-34" x1="626.14" y1="117.61" x2="578.24" y2="145.18"/><line class="cls-34" x1="619.02" y1="113.43" x2="571.12" y2="141"/><line class="cls-34" x1="666.72" y1="206.99" x2="666.72" y2="262.9"/><line class="cls-34" x1="659.5" y1="202.85" x2="659.5" y2="258.77"/><line class="cls-34" x1="652.31" y1="199.61" x2="652.31" y2="255.52"/><line class="cls-34" x1="644.99" y1="195.39" x2="644.99" y2="251.31"/><line class="cls-34" x1="638.15" y1="190.73" x2="638.15" y2="246.64"/><line class="cls-34" x1="630.75" y1="186.22" x2="630.75" y2="242.14"/><line class="cls-34" x1="623.63" y1="182.99" x2="623.63" y2="238.9"/><line class="cls-34" x1="616.52" y1="178.89" x2="616.52" y2="234.8"/><line class="cls-34" x1="609.21" y1="173.9" x2="609.21" y2="229.81"/><line class="cls-34" x1="602.08" y1="170.46" x2="602.08" y2="226.38"/><line class="cls-34" x1="594.95" y1="165.47" x2="594.95" y2="221.38"/><line class="cls-34" x1="587.83" y1="162.07" x2="587.83" y2="217.99"/><line class="cls-34" x1="580.55" y1="157.87" x2="580.55" y2="213.78"/><line class="cls-34" x1="573.43" y1="153.65" x2="573.43" y2="209.56"/><line class="cls-34" x1="566.16" y1="149.23" x2="566.16" y2="205.15"/><polygon class="cls-35" points="723.27 181.43 723.27 188.13 703.93 199.34 703.93 192.34 723.27 181.43"/><polygon class="cls-36" points="723.27 181.43 725.18 180.12 725.18 189.07 723.27 188.13 723.27 181.43"/><polygon class="cls-37" points="725.18 189.07 703.93 201.16 703.93 199.34 723.27 188.13 725.18 189.07"/><polygon class="cls-35" points="723.27 197.88 723.27 204.59 703.93 215.79 703.93 208.8 723.27 197.88"/><polygon class="cls-36" points="723.27 197.88 725.18 196.58 725.18 205.52 723.27 204.59 723.27 197.88"/><polygon class="cls-37" points="725.18 205.52 703.93 217.61 703.93 215.79 723.27 204.59 725.18 205.52"/><polygon class="cls-35" points="723.27 213.68 723.27 220.39 703.93 231.59 703.93 224.6 723.27 213.68"/><polygon class="cls-36" points="723.27 213.68 725.18 212.38 725.18 221.32 723.27 220.39 723.27 213.68"/><polygon class="cls-37" points="725.18 221.32 703.93 233.41 703.93 231.59 723.27 220.39 725.18 221.32"/><polygon class="cls-35" points="723.27 230.25 723.27 236.96 703.93 248.16 703.93 241.17 723.27 230.25"/><polygon class="cls-36" points="723.27 230.25 725.18 228.94 725.18 237.89 723.27 236.96 723.27 230.25"/><polygon class="cls-37" points="725.18 237.89 703.93 249.98 703.93 248.16 723.27 236.96 725.18 237.89"/><polygon class="cls-35" points="694.87 197.39 694.87 204.1 675.53 215.3 675.53 208.31 694.87 197.39"/><polygon class="cls-36" points="694.87 197.39 696.77 196.09 696.77 205.03 694.87 204.1 694.87 197.39"/><polygon class="cls-37" points="696.77 205.03 675.53 217.12 675.53 215.3 694.87 204.1 696.77 205.03"/><polygon class="cls-35" points="694.87 213.84 694.87 220.55 675.53 231.76 675.53 224.76 694.87 213.84"/><polygon class="cls-36" points="694.87 213.84 696.77 212.54 696.77 221.48 694.87 220.55 694.87 213.84"/><polygon class="cls-37" points="696.77 221.48 675.53 233.57 675.53 231.76 694.87 220.55 696.77 221.48"/><polygon class="cls-35" points="694.87 229.64 694.87 236.35 675.53 247.56 675.53 240.56 694.87 229.64"/><polygon class="cls-36" points="694.87 229.64 696.77 228.34 696.77 237.28 694.87 236.35 694.87 229.64"/><polygon class="cls-37" points="696.77 237.28 675.53 249.37 675.53 247.56 694.87 236.35 696.77 237.28"/><polygon class="cls-35" points="694.87 246.21 694.87 252.92 675.53 264.13 675.53 257.13 694.87 246.21"/><polygon class="cls-36" points="694.87 246.21 696.77 244.91 696.77 253.85 694.87 252.92 694.87 246.21"/><polygon class="cls-37" points="696.77 253.85 675.53 265.94 675.53 264.13 694.87 252.92 696.77 253.85"/><polygon class="cls-38" points="723.27 192.77 723.27 195.55 718.34 198.46 718.34 195.46 723.27 192.77"/><polygon class="cls-38" points="723.27 225.5 723.27 228.28 718.34 231.18 718.34 228.18 723.27 225.5"/><polygon class="cls-38" points="711.02 199.34 711.02 202.12 706.09 205.03 706.09 202.02 711.02 199.34"/><polygon class="cls-38" points="711.02 232.06 711.02 234.84 706.09 237.75 706.09 234.75 711.02 232.06"/><polygon class="cls-38" points="694.87 208.43 694.87 211.22 689.94 214.12 689.94 211.12 694.87 208.43"/><polygon class="cls-38" points="694.87 241.16 694.87 243.94 689.94 246.85 689.94 243.84 694.87 241.16"/><polygon class="cls-38" points="682.51 214.93 682.51 217.71 677.58 220.62 677.58 217.61 682.51 214.93"/><polygon class="cls-38" points="682.51 247.65 682.51 250.43 677.58 253.34 677.58 250.34 682.51 247.65"/><ellipse class="cls-39" cx="720.86" cy="184.78" rx="1.45" ry="0.99"/><path class="cls-40" d="M719.41,184.78v54.43c0,.54.65,1,1.45,1s1.45-.45,1.45-1V184.78c0,.55-.65,1-1.45,1S719.41,185.33,719.41,184.78Z"/><ellipse class="cls-39" cx="708.55" cy="191.41" rx="1.45" ry="0.99"/><ellipse class="cls-39" cx="692.64" cy="200.33" rx="1.45" ry="0.99"/><path class="cls-40" d="M691.19,200.33v54.42c0,.55.65,1,1.45,1s1.46-.44,1.46-1V200.33c0,.55-.65,1-1.46,1S691.19,200.88,691.19,200.33Z"/><path class="cls-38" d="M678.88,207c0,.55.65,1,1.46,1s1.45-.45,1.45-1-.65-1-1.45-1S678.88,206.41,678.88,207Z"/><path class="cls-40" d="M707.1,191.41v54.41c0,.55.65,1,1.45,1s1.45-.45,1.45-1V191.41c0,.54-.65,1-1.45,1S707.1,192,707.1,191.41Z"/><path class="cls-40" d="M678.88,207v54.42c0,.55.65,1,1.46,1s1.45-.44,1.45-1V207c0,.55-.65,1-1.45,1S678.88,207.5,678.88,207Z"/><polygon class="cls-20" points="625.93 235.01 515.1 170.94 457.81 203.97 568.98 268.37 625.93 235.01"/><polygon class="cls-21" points="568.98 268.37 568.98 333.7 457.81 269.96 457.81 203.97 568.98 268.37"/><polygon class="cls-22" points="625.93 235.01 568.98 268.37 568.98 333.7 625.93 301.36 625.93 235.01"/><polygon class="cls-23" points="457.81 269.96 457.81 274.45 568.98 338.37 568.98 333.7 457.81 269.96"/><polygon class="cls-24" points="568.98 338.37 625.93 305.48 625.93 301.36 568.98 333.7 568.98 338.37"/><line class="cls-25" x1="616.28" y1="235.01" x2="568.38" y2="262.58"/><line class="cls-25" x1="608.92" y1="230.8" x2="561.02" y2="258.36"/><line class="cls-25" x1="602.08" y1="226.38" x2="554.18" y2="253.94"/><line class="cls-25" x1="594.95" y1="222.39" x2="547.05" y2="249.95"/><line class="cls-25" x1="587.54" y1="218.39" x2="539.64" y2="245.96"/><line class="cls-25" x1="580.33" y1="214.29" x2="532.43" y2="241.86"/><line class="cls-25" x1="573.13" y1="210.11" x2="525.23" y2="237.68"/><line class="cls-25" x1="565.82" y1="205.87" x2="517.92" y2="233.43"/><line class="cls-25" x1="558.35" y1="201.78" x2="510.45" y2="229.34"/><line class="cls-25" x1="551.58" y1="197.48" x2="503.68" y2="225.05"/><line class="cls-25" x1="544.45" y1="193.06" x2="496.55" y2="220.63"/><line class="cls-25" x1="537.34" y1="189.12" x2="489.44" y2="216.69"/><line class="cls-25" x1="530.15" y1="184.68" x2="482.25" y2="212.25"/><line class="cls-25" x1="523.02" y1="180.59" x2="475.12" y2="208.15"/><line class="cls-25" x1="515.89" y1="176.41" x2="467.99" y2="203.97"/><line class="cls-26" x1="563.59" y1="269.96" x2="563.59" y2="325.88"/><line class="cls-26" x1="556.38" y1="265.83" x2="556.38" y2="321.74"/><line class="cls-26" x1="549.18" y1="262.58" x2="549.18" y2="318.5"/><line class="cls-26" x1="541.87" y1="258.36" x2="541.87" y2="314.28"/><line class="cls-26" x1="535.02" y1="253.7" x2="535.02" y2="309.62"/><line class="cls-26" x1="527.63" y1="249.19" x2="527.63" y2="305.11"/><line class="cls-26" x1="520.5" y1="245.96" x2="520.5" y2="301.88"/><line class="cls-26" x1="513.39" y1="241.86" x2="513.39" y2="297.78"/><line class="cls-26" x1="506.08" y1="236.87" x2="506.08" y2="292.79"/><line class="cls-26" x1="498.96" y1="233.43" x2="498.96" y2="289.35"/><line class="cls-26" x1="491.83" y1="228.44" x2="491.83" y2="284.36"/><line class="cls-26" x1="484.7" y1="225.05" x2="484.7" y2="280.96"/><line class="cls-26" x1="477.43" y1="220.84" x2="477.43" y2="276.76"/><line class="cls-26" x1="470.3" y1="216.62" x2="470.3" y2="272.54"/><line class="cls-26" x1="463.03" y1="212.2" x2="463.03" y2="268.12"/><polygon class="cls-21" points="620.15 244.4 620.15 251.11 600.81 262.31 600.81 255.32 620.15 244.4"/><polygon class="cls-27" points="620.15 244.4 622.05 243.1 622.05 252.04 620.15 251.11 620.15 244.4"/><polygon class="cls-20" points="622.05 252.04 600.81 264.13 600.81 262.31 620.15 251.11 622.05 252.04"/><polygon class="cls-21" points="620.15 260.85 620.15 267.56 600.81 278.77 600.81 271.77 620.15 260.85"/><polygon class="cls-27" points="620.15 260.85 622.05 259.55 622.05 268.49 620.15 267.56 620.15 260.85"/><polygon class="cls-20" points="622.05 268.49 600.81 280.58 600.81 278.77 620.15 267.56 622.05 268.49"/><polygon class="cls-21" points="620.15 276.65 620.15 283.36 600.81 294.57 600.81 287.57 620.15 276.65"/><polygon class="cls-27" points="620.15 276.65 622.05 275.35 622.05 284.29 620.15 283.36 620.15 276.65"/><polygon class="cls-20" points="622.05 284.29 600.81 296.38 600.81 294.57 620.15 283.36 622.05 284.29"/><polygon class="cls-21" points="620.15 293.22 620.15 299.93 600.81 311.14 600.81 304.14 620.15 293.22"/><polygon class="cls-27" points="620.15 293.22 622.05 291.92 622.05 300.86 620.15 299.93 620.15 293.22"/><polygon class="cls-20" points="622.05 300.86 600.81 312.95 600.81 311.14 620.15 299.93 622.05 300.86"/><polygon class="cls-21" points="591.75 260.36 591.75 267.07 572.4 278.28 572.4 271.28 591.75 260.36"/><polygon class="cls-27" points="591.75 260.36 593.65 259.06 593.65 268 591.75 267.07 591.75 260.36"/><polygon class="cls-20" points="593.65 268 572.4 280.09 572.4 278.28 591.75 267.07 593.65 268"/><polygon class="cls-21" points="591.75 276.82 591.75 283.53 572.4 294.73 572.4 287.74 591.75 276.82"/><polygon class="cls-27" points="591.75 276.82 593.65 275.51 593.65 284.46 591.75 283.53 591.75 276.82"/><polygon class="cls-20" points="593.65 284.46 572.4 296.55 572.4 294.73 591.75 283.53 593.65 284.46"/><polygon class="cls-21" points="591.75 292.62 591.75 299.32 572.4 310.53 572.4 303.54 591.75 292.62"/><polygon class="cls-27" points="591.75 292.62 593.65 291.31 593.65 300.26 591.75 299.32 591.75 292.62"/><polygon class="cls-20" points="593.65 300.26 572.4 312.35 572.4 310.53 591.75 299.32 593.65 300.26"/><polygon class="cls-21" points="591.75 309.19 591.75 315.89 572.4 327.1 572.4 320.11 591.75 309.19"/><polygon class="cls-27" points="591.75 309.19 593.65 307.88 593.65 316.82 591.75 315.89 591.75 309.19"/><polygon class="cls-20" points="593.65 316.82 572.4 328.92 572.4 327.1 591.75 315.89 593.65 316.82"/><polygon class="cls-28" points="620.15 255.75 620.15 258.53 615.22 261.44 615.22 258.43 620.15 255.75"/><polygon class="cls-28" points="620.15 288.47 620.15 291.25 615.22 294.16 615.22 291.15 620.15 288.47"/><polygon class="cls-28" points="607.89 262.31 607.89 265.1 602.96 268 602.96 265 607.89 262.31"/><polygon class="cls-28" points="607.89 295.04 607.89 297.82 602.96 300.73 602.96 297.72 607.89 295.04"/><polygon class="cls-28" points="591.75 271.41 591.75 274.19 586.82 277.1 586.82 274.09 591.75 271.41"/><polygon class="cls-28" points="591.75 304.13 591.75 306.91 586.82 309.82 586.82 306.82 591.75 304.13"/><polygon class="cls-28" points="579.39 277.9 579.39 280.68 574.46 283.59 574.46 280.59 579.39 277.9"/><polygon class="cls-28" points="579.39 310.63 579.39 313.41 574.46 316.31 574.46 313.31 579.39 310.63"/><ellipse class="cls-29" cx="617.73" cy="247.76" rx="1.45" ry="0.99"/><path class="cls-30" d="M616.28,247.76v54.42c0,.55.65,1,1.45,1s1.46-.44,1.46-1V247.76c0,.55-.65,1-1.46,1S616.28,248.31,616.28,247.76Z"/><ellipse class="cls-29" cx="605.43" cy="254.38" rx="1.45" ry="0.99"/><ellipse class="cls-29" cx="589.52" cy="263.31" rx="1.45" ry="0.99"/><path class="cls-30" d="M588.07,263.31v54.42c0,.54.65,1,1.45,1s1.45-.45,1.45-1V263.31c0,.54-.65,1-1.45,1S588.07,263.85,588.07,263.31Z"/><path class="cls-28" d="M575.76,269.93c0,.54.65,1,1.45,1s1.45-.45,1.45-1-.65-1-1.45-1S575.76,269.38,575.76,269.93Z"/><path class="cls-30" d="M604,254.38V308.8c0,.55.65,1,1.46,1s1.45-.44,1.45-1V254.38c0,.55-.65,1-1.45,1S604,254.93,604,254.38Z"/><path class="cls-30" d="M575.76,269.93v54.42c0,.55.65,1,1.45,1s1.45-.44,1.45-1V269.93c0,.54-.65,1-1.45,1S575.76,270.47,575.76,269.93Z"/><polygon class="cls-20" points="517.77 299.87 406.95 235.79 349.65 268.83 460.82 333.22 517.77 299.87"/><polygon class="cls-21" points="460.82 333.22 460.82 398.56 349.65 334.82 349.65 268.83 460.82 333.22"/><polygon class="cls-22" points="517.77 299.87 460.82 333.22 460.82 398.56 517.77 366.22 517.77 299.87"/><polygon class="cls-23" points="349.65 334.82 349.65 339.3 460.82 403.23 460.82 398.56 349.65 334.82"/><polygon class="cls-24" points="460.82 403.23 517.77 370.33 517.77 366.22 460.82 398.56 460.82 403.23"/><line class="cls-25" x1="508.12" y1="299.87" x2="460.23" y2="327.44"/><line class="cls-25" x1="500.77" y1="295.65" x2="452.87" y2="323.22"/><line class="cls-25" x1="493.92" y1="291.23" x2="446.02" y2="318.8"/><line class="cls-25" x1="486.8" y1="287.24" x2="438.9" y2="314.81"/><line class="cls-25" x1="479.38" y1="283.25" x2="431.48" y2="310.82"/><line class="cls-25" x1="472.17" y1="279.15" x2="424.27" y2="306.72"/><line class="cls-25" x1="464.98" y1="274.97" x2="417.08" y2="302.53"/><line class="cls-25" x1="457.66" y1="270.72" x2="409.76" y2="298.29"/><line class="cls-25" x1="450.19" y1="266.63" x2="402.29" y2="294.2"/><line class="cls-25" x1="443.42" y1="262.34" x2="395.52" y2="289.91"/><line class="cls-25" x1="436.29" y1="257.92" x2="388.39" y2="285.49"/><line class="cls-25" x1="429.19" y1="253.98" x2="381.29" y2="281.54"/><line class="cls-25" x1="421.99" y1="249.54" x2="374.09" y2="277.11"/><line class="cls-25" x1="414.86" y1="245.45" x2="366.96" y2="273.01"/><line class="cls-25" x1="407.73" y1="241.26" x2="359.83" y2="268.83"/><line class="cls-26" x1="455.43" y1="334.82" x2="455.43" y2="390.73"/><line class="cls-26" x1="448.22" y1="330.68" x2="448.22" y2="386.6"/><line class="cls-26" x1="441.03" y1="327.44" x2="441.03" y2="383.36"/><line class="cls-26" x1="433.71" y1="323.22" x2="433.71" y2="379.14"/><line class="cls-26" x1="426.87" y1="318.56" x2="426.87" y2="374.48"/><line class="cls-26" x1="419.47" y1="314.05" x2="419.47" y2="369.97"/><line class="cls-26" x1="412.34" y1="310.82" x2="412.34" y2="366.74"/><line class="cls-26" x1="405.24" y1="306.72" x2="405.24" y2="362.64"/><line class="cls-26" x1="397.93" y1="301.73" x2="397.93" y2="357.65"/><line class="cls-26" x1="390.8" y1="298.29" x2="390.8" y2="354.21"/><line class="cls-26" x1="383.67" y1="293.3" x2="383.67" y2="349.22"/><line class="cls-26" x1="376.54" y1="289.91" x2="376.54" y2="345.82"/><line class="cls-26" x1="369.27" y1="285.7" x2="369.27" y2="341.61"/><line class="cls-26" x1="362.15" y1="281.48" x2="362.15" y2="337.4"/><line class="cls-26" x1="354.87" y1="277.06" x2="354.87" y2="332.98"/><polygon class="cls-21" points="511.99 309.26 511.99 315.97 492.65 327.17 492.65 320.18 511.99 309.26"/><polygon class="cls-27" points="511.99 309.26 513.89 307.96 513.89 316.9 511.99 315.97 511.99 309.26"/><polygon class="cls-20" points="513.89 316.9 492.65 328.99 492.65 327.17 511.99 315.97 513.89 316.9"/><polygon class="cls-21" points="511.99 325.71 511.99 332.42 492.65 343.63 492.65 336.63 511.99 325.71"/><polygon class="cls-27" points="511.99 325.71 513.89 324.41 513.89 333.35 511.99 332.42 511.99 325.71"/><polygon class="cls-20" points="513.89 333.35 492.65 345.44 492.65 343.63 511.99 332.42 513.89 333.35"/><polygon class="cls-21" points="511.99 341.51 511.99 348.22 492.65 359.42 492.65 352.43 511.99 341.51"/><polygon class="cls-27" points="511.99 341.51 513.89 340.21 513.89 349.15 511.99 348.22 511.99 341.51"/><polygon class="cls-20" points="513.89 349.15 492.65 361.24 492.65 359.42 511.99 348.22 513.89 349.15"/><polygon class="cls-21" points="511.99 358.08 511.99 364.79 492.65 375.99 492.65 369 511.99 358.08"/><polygon class="cls-27" points="511.99 358.08 513.89 356.78 513.89 365.72 511.99 364.79 511.99 358.08"/><polygon class="cls-20" points="513.89 365.72 492.65 377.81 492.65 375.99 511.99 364.79 513.89 365.72"/><polygon class="cls-21" points="483.59 325.22 483.59 331.93 464.25 343.13 464.25 336.14 483.59 325.22"/><polygon class="cls-27" points="483.59 325.22 485.49 323.92 485.49 332.86 483.59 331.93 483.59 325.22"/><polygon class="cls-20" points="485.49 332.86 464.25 344.95 464.25 343.13 483.59 331.93 485.49 332.86"/><polygon class="cls-21" points="483.59 341.68 483.59 348.38 464.25 359.59 464.25 352.6 483.59 341.68"/><polygon class="cls-27" points="483.59 341.68 485.49 340.37 485.49 349.31 483.59 348.38 483.59 341.68"/><polygon class="cls-20" points="485.49 349.31 464.25 361.4 464.25 359.59 483.59 348.38 485.49 349.31"/><polygon class="cls-21" points="483.59 357.47 483.59 364.18 464.25 375.39 464.25 368.39 483.59 357.47"/><polygon class="cls-27" points="483.59 357.47 485.49 356.17 485.49 365.11 483.59 364.18 483.59 357.47"/><polygon class="cls-20" points="485.49 365.11 464.25 377.2 464.25 375.39 483.59 364.18 485.49 365.11"/><polygon class="cls-21" points="483.59 374.04 483.59 380.75 464.25 391.96 464.25 384.96 483.59 374.04"/><polygon class="cls-27" points="483.59 374.04 485.49 372.74 485.49 381.68 483.59 380.75 483.59 374.04"/><polygon class="cls-20" points="485.49 381.68 464.25 393.77 464.25 391.96 483.59 380.75 485.49 381.68"/><polygon class="cls-28" points="511.99 320.6 511.99 323.38 507.06 326.29 507.06 323.29 511.99 320.6"/><polygon class="cls-28" points="511.99 353.33 511.99 356.11 507.06 359.01 507.06 356.01 511.99 353.33"/><polygon class="cls-28" points="499.74 327.17 499.74 329.95 494.8 332.86 494.8 329.86 499.74 327.17"/><polygon class="cls-28" points="499.74 359.89 499.74 362.68 494.8 365.58 494.8 362.58 499.74 359.89"/><polygon class="cls-28" points="483.59 336.27 483.59 339.05 478.66 341.95 478.66 338.95 483.59 336.27"/><polygon class="cls-28" points="483.59 368.99 483.59 371.77 478.66 374.68 478.66 371.67 483.59 368.99"/><polygon class="cls-28" points="471.23 342.76 471.23 345.54 466.3 348.45 466.3 345.45 471.23 342.76"/><polygon class="cls-28" points="471.23 375.48 471.23 378.26 466.3 381.17 466.3 378.17 471.23 375.48"/><ellipse class="cls-29" cx="509.58" cy="312.62" rx="1.45" ry="0.99"/><path class="cls-30" d="M508.13,312.62V367c0,.54.65,1,1.45,1s1.45-.45,1.45-1V312.62c0,.54-.65,1-1.45,1S508.13,313.16,508.13,312.62Z"/><ellipse class="cls-29" cx="497.27" cy="319.24" rx="1.45" ry="0.99"/><ellipse class="cls-29" cx="481.36" cy="328.16" rx="1.45" ry="0.99"/><path class="cls-30" d="M479.91,328.16v54.42c0,.55.65,1,1.45,1s1.46-.45,1.46-1V328.16c0,.55-.66,1-1.46,1S479.91,328.71,479.91,328.16Z"/><path class="cls-28" d="M467.6,334.79c0,.54.65,1,1.45,1s1.46-.45,1.46-1-.65-1-1.46-1S467.6,334.24,467.6,334.79Z"/><path class="cls-30" d="M495.82,319.24v54.42c0,.54.65,1,1.45,1s1.45-.45,1.45-1V319.24c0,.55-.65,1-1.45,1S495.82,319.79,495.82,319.24Z"/><path class="cls-30" d="M467.6,334.79V389.2c0,.55.65,1,1.45,1s1.46-.45,1.46-1V334.79c0,.54-.65,1-1.46,1S467.6,335.33,467.6,334.79Z"/></g></g></svg>