<svg xmlns="http://www.w3.org/2000/svg" xmlns:xlink="http://www.w3.org/1999/xlink" viewBox="0 0 807.91 710.05"><defs><style>.cls-1{isolation:isolate;}.cls-2{fill:#9b9fa8;mix-blend-mode:multiply;}.cls-3{fill:#141140;}.cls-4{fill:#b0afc6;}.cls-5{fill:#abb4d5;}.cls-6{fill:#eeeef3;}.cls-7{fill:#d7daea;}.cls-8{fill:#bad9ea;}.cls-9{fill:#e1deeb;}.cls-10{fill:#ed2224;}.cls-11{fill:url(#linear-gradient);}</style><linearGradient id="linear-gradient" x1="4967.52" y1="305.08" x2="4835.59" y2="543.61" gradientTransform="matrix(-1, 0, 0, 1, 5276.01, 0)" gradientUnits="userSpaceOnUse"><stop offset="0" stop-color="#fff"/><stop offset="0.5" stop-color="#fff"/><stop offset="0.81" stop-color="#d1d1e0"/><stop offset="1" stop-color="#bbbbd1"/></linearGradient></defs><g class="cls-1"><g id="Layer_2" data-name="Layer 2"><g id="Layer_1-2" data-name="Layer 1"><path class="cls-2" d="M4.1,659.19,19,635l4.25-6.77q4.71-7.51,9.88-14.67a253.71,253.71,0,0,1,68.07-65.24l28.6-18.47a57.25,57.25,0,0,1-3.22-5.47c-8.86-17.18-8.22-36.13,1.42-42.33l26-16.69a71.73,71.73,0,0,1,10.85-21.51L121,250.6l-.28-1.24-.46-2-.23-1-8.67-38.28,28.59-69.52A42.74,42.74,0,0,1,156,118.78l4.47-2.89-15.26,69.36,20.11,28.6.63.89,1.09,1.62.52.75L191.39,251l.56.78,1.07,1.43.66.95,11.58,16.55L207.5,274l36.07,51.34.56.81,1.08,1.52.65.94,7.69,10.94.51.72.05,0,1.06,1.5,0,0,.71,1,32.61,46.5a70,70,0,0,0,7.89,9.36c1,1,1.95,2,3,2.83a66.37,66.37,0,0,0,8.27,6.37l5.62,3.64,72-46.5,0-10.25a3.66,3.66,0,1,1,7.28,0v5.58l20.82-13.45,0-9.08a3.66,3.66,0,1,1,7.28,0v4.4L532.17,270q21-13.5,42.85-25l8.35-3.21-54.25-63.18c-6-7-4.56-18.52,3-23.36l25.62-16.45,18.48,15.83.89.77,1.56,1.26.73.7,27.17,23.29,2.3-7.71,27.29-91.66c4-13.71,12.46-25.25,23.65-32.49l30.85-19.87c2.29-1.52,5.21.39,5.21,3.38V198.58l21.35-8.2A13.06,13.06,0,0,1,731,193.2a17.12,17.12,0,0,1,4,18.4c-6.18,16.1-12.91,32-20.23,47.5l9.5,4.22,4.41,1.95L789,292l4.4,2,14.52,6.42-32.36,20.92A20.73,20.73,0,0,1,758.66,324l-68.39-19.23c-21.69,35.46-48.09,66.49-81.29,88.76,0,0-65.35,44.44-145.5,98.58l0,7.6a16,16,0,0,0,6.91,13.45l10.12,6.69L484,522.1l17.38,11.49a35,35,0,0,0,11.73,5l10,2.29,5,1,19.42,4.3,5.5,1.25L601,558.14l5.55,1.25,72.72,16.17,1.18.25,2.32.52,1.46.32,59.14,13.17,5.5,1.2,21.09,4.7,9.85-37.26c3.22-12.19,10.5-22.52,20.34-28.88l0,72.87-38.5,24.67-55.49-3.27-1.74-.1-3.12-.18-1.76-.1-262.2-15.38c8.84,17,3.79,39.29-12,49.22L380,686.49c-.17.12-.29.31-.47.43-.35.22-.7.37-1.05.55l-.36.23c-10.71,5.17-24.64-6.2-32.1-20.68-8.86-17.18-8.23-36.13,1.42-42.33L373.32,608l1.08-3.63-36.8-2.16-1.66-.1-3.17-.18-1.74-.1-17.28-1-14,1.31c-37.9,25.29-71.39,47.43-94.55,62.37-33.82,21.81-126,67.52-191.64,33.15a24.36,24.36,0,0,1-8.89-8.06A28.59,28.59,0,0,1,4.1,659.19Z"/><path class="cls-3" d="M128,453.67,174.08,424c13.89-9,31.63-5.16,41.46,9.07,12,17.31,7.4,42.46-9.65,53.18l-47.25,30.4Z"/><path class="cls-4" d="M157.39,445.57c5.57-18.75,17.1-34.56,32.39-44.44l8.3-5.36V389l-16.71,10.8c-13.09,8.45-23,22-27.72,38L152.4,442c-1.2,4,1.78,7.58,5.09,7.35A6.06,6.06,0,0,1,157.39,445.57Z"/><path class="cls-5" d="M198.08,423.85V395.77l-14.48,9.36c-11.31,7.3-19.84,19-24,32.87l-2.25,7.57a6.06,6.06,0,0,0,.1,3.78,4.49,4.49,0,0,0,2.2-.69Z"/><path class="cls-6" d="M161.47,473.57c-8.86-17.18-23.86-26.09-33.51-19.9s-10.28,25.14-1.42,42.33c7.8,15.12,22.64,26.87,33.51,19.9C169.7,509.7,170.33,490.75,161.47,473.57Z"/><path class="cls-5" d="M141.1,486.68c-5-9.66-6.91-20.54-5-28.38a20,20,0,0,1,.64-2.13,12.29,12.29,0,0,0-1.89-.17,9,9,0,0,0-5,1.4c-3,1.93-4.4,5.46-5,8.07-1.89,7.84,0,18.71,5,28.38,5.92,11.48,15.66,19.81,23.16,19.81a9.3,9.3,0,0,0,5.11-1.49,11.63,11.63,0,0,0,4.34-5.85C155.27,505.16,146.56,497.28,141.1,486.68Z"/><path class="cls-7" d="M163.17,504.08c-.18.71-.41,1.47-.69,2.24-7.21-1.14-15.92-9.06-21.38-19.64-5-9.67-6.91-20.55-5-28.38a17.39,17.39,0,0,1,.64-2.13c4.42.69,9.26,3.75,13.62,8.41.25.24.48.5.72.78a49.6,49.6,0,0,1,7.09,10.36,52.65,52.65,0,0,1,4.06,10.41c.17.58.32,1.16.46,1.74C164.07,493.74,164.28,499.46,163.17,504.08Z"/><path class="cls-8" d="M162.21,486.13a52.65,52.65,0,0,0-4.06-10.41,49.6,49.6,0,0,0-7.09-10.36c-.24-.28-.47-.54-.72-.78l-.07,0a5.67,5.67,0,0,0-2.16,3.47c-.8,3.35,0,8,2.16,12.14,2.53,4.93,6.71,8.5,9.92,8.5a4,4,0,0,0,2.19-.65l.29-.21C162.53,487.29,162.38,486.71,162.21,486.13Z"/><path class="cls-9" d="M349.43,406.54,186.23,510.09,184,500.34l-13.33-58.79-3.07-13.4-.78-3.54-.44-1.79v-.06l-1.65-7.35L121,222.2,120,218l-8.67-38.28,33.92-22.82,20.11,28.6,2.24,3.27,23.8,33.91,2.29,3.16,11.58,16.55,2.24,3.21,36.07,51.34,2.29,3.27,7.69,10.94,2.28,3.21,32.61,46.5a70,70,0,0,0,7.89,9.36c1,1,1.95,2,3,2.83a65.43,65.43,0,0,0,8.27,6.37Z"/><path class="cls-8" d="M139.91,110.15l-28.59,69.52,33.92-22.82L160.5,87.49,156,90.38A42.84,42.84,0,0,0,139.91,110.15Z"/><path class="cls-10" d="M138.39,225.6a11.84,11.84,0,0,0-7.07-6.84,10.73,10.73,0,0,0-3.26-.52,10.44,10.44,0,0,0-6.06,1.95l-1.32.78-.46-2a15.77,15.77,0,0,1,7.86-2.67,12.12,12.12,0,0,1,3.76.6,14,14,0,0,1,8.2,7.91l94.35,224.67-1.6.82Z"/><path class="cls-3" d="M347.4,596.3l46.11-29.64c13.9-9,31.63-5.16,41.47,9.07,12,17.3,7.4,42.46-9.65,53.18l-47.25,30.4Z"/><path class="cls-4" d="M376.83,588.2l4.49-15.11,4.16-14,32-20.7v-6.79l-37,23.92-4.16,14-4.49,15.11c-1.2,4,1.78,7.58,5.08,7.35A6.06,6.06,0,0,1,376.83,588.2Z"/><path class="cls-5" d="M417.51,566.47V538.4l-32,20.7-4.16,14-4.49,15.11a6.06,6.06,0,0,0,.09,3.78,4.43,4.43,0,0,0,2.2-.69Z"/><path class="cls-6" d="M380.91,616.2c-8.86-17.19-23.86-26.1-33.51-19.9s-10.28,25.14-1.42,42.32c7.8,15.13,22.64,26.88,33.51,19.9C389.13,652.33,389.77,633.38,380.91,616.2Z"/><path class="cls-5" d="M360.53,629.31c-5-9.67-6.9-20.54-5-28.38a20,20,0,0,1,.64-2.13,12.16,12.16,0,0,0-1.88-.17,9.08,9.08,0,0,0-5,1.39c-3,1.94-4.39,5.46-5,8.08-1.89,7.83,0,18.71,5,28.38,5.92,11.47,15.66,19.8,23.15,19.81a9.31,9.31,0,0,0,5.11-1.5,11.59,11.59,0,0,0,4.34-5.84C374.71,647.79,366,639.9,360.53,629.31Z"/><path class="cls-7" d="M382.6,646.71a18.88,18.88,0,0,1-.69,2.24c-7.21-1.14-15.92-9.06-21.38-19.64-5-9.68-6.9-20.55-5-28.38a21,21,0,0,1,.64-2.13c4.43.69,9.27,3.74,13.63,8.41a8.75,8.75,0,0,1,.71.77,49.3,49.3,0,0,1,7.09,10.37,52,52,0,0,1,4.06,10.4c.17.58.33,1.16.46,1.75C383.51,636.37,383.72,642.09,382.6,646.71Z"/><path class="cls-8" d="M381.64,628.75a52,52,0,0,0-4.06-10.4A49.3,49.3,0,0,0,370.49,608a8.75,8.75,0,0,0-.71-.77l-.08,0a5.66,5.66,0,0,0-2.15,3.46c-.81,3.36,0,8,2.15,12.15,2.54,4.93,6.71,8.5,9.92,8.5a3.93,3.93,0,0,0,2.19-.65,1.94,1.94,0,0,0,.29-.21C382,629.91,381.81,629.33,381.64,628.75Z"/><path class="cls-9" d="M652.46,191.6,596,228.09l-6.7-7.83-60.13-70c-6-7-4.56-18.51,3-23.36l25.62-16.44,18.48,15.82L579.4,129l29.48,25.27,14.25,12.22,3.15,2.73Z"/><path class="cls-11" d="M736.1,177A16.83,16.83,0,0,1,735,183.2c-27.8,72.38-65.75,141.49-126,181.89,0,0-301.8,205.25-403.79,271-33.82,21.81-126,67.52-191.64,33.15a24.54,24.54,0,0,1-8.89-8.06,28.61,28.61,0,0,1-.56-30.41L19,606.62l4.25-6.77q4.71-7.53,9.88-14.68a253.71,253.71,0,0,1,68.07-65.24l431-278.33q21-13.5,42.85-25L717.22,162A13.06,13.06,0,0,1,731,164.8,16.81,16.81,0,0,1,736.1,177Z"/><path class="cls-9" d="M807.91,272l-32.36,20.92a20.73,20.73,0,0,1-16.89,2.65L657.72,267.19c-2.78-.75-3.3-4.93-.82-6.51l49.7-32.1a2.77,2.77,0,0,1,2.77-.24l14.85,6.58,4.41,2L789,263.62l4.4,1.95Z"/><path class="cls-9" d="M800.14,574.06l-38.5,24.66-55.49-3.27-6.62-.38L337.6,573.84l-6.57-.38-17.28-1-23.31,2.18c-3.46.33-4.92-4.84-1.85-6.8L458.51,458.26c2.19-1.42,5,.33,5,3.16l0,9.85a16,16,0,0,0,6.91,13.45l10.12,6.69L484,493.7l17.38,11.49a35.17,35.17,0,0,0,11.73,5l10,2.28,5,1,19.42,4.3,5.5,1.25L601,529.74l5.55,1.25,72.72,16.17,5,1.09,59.14,13.18,5.5,1.2Z"/><path class="cls-8" d="M779.78,530.06l-18.14,68.66,38.5-24.66V501.18C790.29,507.53,783,517.88,779.78,530.06Z"/><path class="cls-3" d="M523.31,373.74v10.61a8.65,8.65,0,0,1-3.76,7.28l-.61.39c-2.08,1.34-4.69-.34-4.69-3V378.37a8.63,8.63,0,0,1,3.76-7.28l.6-.39C520.7,369.35,523.31,371,523.31,373.74Z"/><path class="cls-3" d="M539.87,363.13v10.61a8.65,8.65,0,0,1-3.76,7.28l-.6.39c-2.09,1.34-4.7-.34-4.7-3V367.76a8.63,8.63,0,0,1,3.76-7.28l.6-.39C537.26,358.74,539.87,360.43,539.87,363.13Z"/><path class="cls-3" d="M556.43,352.52v10.61a8.63,8.63,0,0,1-3.76,7.28l-.6.39c-2.09,1.35-4.7-.34-4.7-3V357.15a8.63,8.63,0,0,1,3.76-7.28l.6-.39C553.82,348.14,556.43,349.82,556.43,352.52Z"/><path class="cls-3" d="M573,341.91v10.61a8.63,8.63,0,0,1-3.76,7.28l-.6.39c-2.09,1.35-4.7-.34-4.7-3V346.54a8.65,8.65,0,0,1,3.76-7.28l.6-.39C570.38,337.53,573,339.21,573,341.91Z"/><path class="cls-3" d="M589.55,330.93v10.61a8.64,8.64,0,0,1-3.76,7.29l-.6.38c-2.09,1.35-4.7-.33-4.7-3V335.57a8.64,8.64,0,0,1,3.76-7.28l.61-.39C586.94,326.55,589.55,328.24,589.55,330.93Z"/><path class="cls-3" d="M357.69,481v10.61a8.65,8.65,0,0,1-3.76,7.28l-.6.39c-2.09,1.35-4.7-.34-4.7-3V485.59a8.63,8.63,0,0,1,3.76-7.28l.6-.39C355.08,476.58,357.69,478.26,357.69,481Z"/><path class="cls-3" d="M374.25,470.35V481a8.63,8.63,0,0,1-3.76,7.28l-.6.39c-2.09,1.35-4.7-.34-4.7-3V475A8.63,8.63,0,0,1,369,467.7l.6-.39C371.64,466,374.25,467.65,374.25,470.35Z"/><path class="cls-3" d="M390.81,459.74v10.61a8.61,8.61,0,0,1-3.76,7.28l-.6.39c-2.09,1.35-4.7-.34-4.7-3V464.38a8.67,8.67,0,0,1,3.76-7.29l.6-.38C388.2,455.36,390.81,457,390.81,459.74Z"/><path class="cls-3" d="M407.37,447.47v10.61a8.61,8.61,0,0,1-3.76,7.28l-.6.39c-2.09,1.35-4.7-.34-4.7-3V452.11a8.62,8.62,0,0,1,3.77-7.28l.6-.39C404.76,443.09,407.37,444.78,407.37,447.47Z"/><path class="cls-3" d="M457.06,417.39v9.83a9,9,0,0,1-3.91,7.58c-2.29,1.47-5.15-.37-5.15-3.33v-9.83a9,9,0,0,1,3.91-7.58C454.2,412.59,457.06,414.43,457.06,417.39Z"/><path class="cls-3" d="M473.62,406.14V416a9,9,0,0,1-3.91,7.57c-2.29,1.48-5.15-.37-5.15-3.32v-9.84a9,9,0,0,1,3.91-7.57C470.76,401.34,473.62,403.19,473.62,406.14Z"/><path class="cls-3" d="M490.18,395.53v9.84a9,9,0,0,1-3.91,7.57c-2.29,1.48-5.15-.37-5.15-3.32v-9.84a9,9,0,0,1,3.91-7.57C487.32,390.73,490.18,392.58,490.18,395.53Z"/><path class="cls-3" d="M506.74,384.93v9.83a9,9,0,0,1-3.91,7.57c-2.28,1.48-5.15-.37-5.15-3.32v-9.84a9,9,0,0,1,3.91-7.57C503.88,380.12,506.74,382,506.74,384.93Z"/><path class="cls-3" d="M192.07,587.71v10.61a8.63,8.63,0,0,1-3.76,7.28l-.6.39c-2.09,1.34-4.7-.34-4.7-3V592.34a8.63,8.63,0,0,1,3.76-7.28l.6-.39C189.46,583.32,192.07,585,192.07,587.71Z"/><path class="cls-3" d="M216.91,571.28v10.61a8.63,8.63,0,0,1-3.76,7.29l-.6.38c-2.09,1.35-4.7-.33-4.7-3V575.92a8.64,8.64,0,0,1,3.76-7.28l.61-.39C214.3,566.9,216.91,568.59,216.91,571.28Z"/><path class="cls-3" d="M233.48,560.64v10.61a8.63,8.63,0,0,1-3.77,7.28l-.6.39c-2.08,1.35-4.69-.34-4.69-3V565.28a8.63,8.63,0,0,1,3.76-7.29l.6-.38C230.87,556.26,233.48,557.94,233.48,560.64Z"/><path class="cls-3" d="M250,550v10.61a8.65,8.65,0,0,1-3.76,7.28l-.6.39c-2.09,1.34-4.7-.34-4.7-3V554.63a8.63,8.63,0,0,1,3.76-7.28l.6-.39C247.43,545.61,250,547.3,250,550Z"/><path class="cls-3" d="M266.6,539.35V550a8.61,8.61,0,0,1-3.76,7.28l-.6.39c-2.09,1.35-4.7-.33-4.7-3V544a8.61,8.61,0,0,1,3.76-7.28l.6-.39C264,535,266.6,536.66,266.6,539.35Z"/><path class="cls-3" d="M291.44,524.53v9.83a9,9,0,0,1-3.91,7.58c-2.29,1.48-5.15-.37-5.15-3.33v-9.83a9,9,0,0,1,3.91-7.57C288.58,519.73,291.44,521.58,291.44,524.53Z"/><path class="cls-10" d="M284.54,556.2a7.71,7.71,0,0,1-4.18-1.27,9.51,9.51,0,0,1-4.18-8.11v-21.3c0-7.12,3.42-13.75,8.93-17.3a7.52,7.52,0,0,1,8.37,0,9.53,9.53,0,0,1,4.18,8.1v21.3a20.59,20.59,0,0,1-8.94,17.31A7.71,7.71,0,0,1,284.54,556.2ZM289.29,509a6,6,0,0,0-3.25,1,18.44,18.44,0,0,0-8,15.51v21.3a7.44,7.44,0,0,0,3.25,6.32,5.88,5.88,0,0,0,6.51,0,18.44,18.44,0,0,0,8-15.52v-21.3a7.39,7.39,0,0,0-3.25-6.31A6,6,0,0,0,289.29,509Z"/><path class="cls-10" d="M185.17,620.48a7.75,7.75,0,0,1-4.19-1.27,9.5,9.5,0,0,1-4.18-8.1V589.8c0-7.12,3.43-13.75,8.94-17.3a7.51,7.51,0,0,1,8.36,0,9.5,9.5,0,0,1,4.18,8.1v21.3c0,7.12-3.42,13.75-8.94,17.31A7.68,7.68,0,0,1,185.17,620.48Zm4.75-47.18a6,6,0,0,0-3.26,1,18.44,18.44,0,0,0-8,15.51v21.31a7.42,7.42,0,0,0,3.26,6.31,5.88,5.88,0,0,0,6.51,0,18.46,18.46,0,0,0,8-15.52V580.6a7.4,7.4,0,0,0-3.26-6.31A6,6,0,0,0,189.92,573.3Z"/><path class="cls-3" d="M324.56,502.76v9.83a9,9,0,0,1-3.91,7.58c-2.28,1.47-5.14-.37-5.14-3.33V507a9,9,0,0,1,3.91-7.58C321.7,498,324.56,499.8,324.56,502.76Z"/><path class="cls-3" d="M341.13,492.15V502a9,9,0,0,1-3.91,7.58c-2.29,1.47-5.15-.37-5.15-3.33V496.4a9,9,0,0,1,3.91-7.58C338.27,487.35,341.13,489.19,341.13,492.15Z"/><path class="cls-10" d="M775.87,272.91a14,14,0,0,1-5.4-1.13l-51.84-22.07a5.22,5.22,0,0,1-3-4.54,5.5,5.5,0,0,1,2.37-5l7.26-4.71,2.09.92-8.47,5.46a3.42,3.42,0,0,0-1.49,3.2,3.35,3.35,0,0,0,1.91,2.86L771.11,270a12,12,0,0,0,4.73,1,12.4,12.4,0,0,0,6.7-2l7.44-4.79,2.09.92-8.65,5.54A13.84,13.84,0,0,1,775.87,272.91Z"/><path class="cls-10" d="M573,140.27a7.11,7.11,0,0,1-2.3-5.75,6.85,6.85,0,0,1,3-5.3l3.44-2.24,1.51,1.3-4.07,2.62a4.82,4.82,0,0,0-2.12,3.77,4.92,4.92,0,0,0,1.63,4.07l39.77,35,29.46-19,.88,1.68-30.5,19.71Z"/><path class="cls-10" d="M701.29,595.17l8.92-6a6.67,6.67,0,0,0,2.64-6.79,5.89,5.89,0,0,0-4.93-5l-306.3-39.1a30.45,30.45,0,0,0-3.81-.24,31.84,31.84,0,0,0-17.95,5.61l-43.92,30-3.17-.19L379,542.06a33.2,33.2,0,0,1,18.84-5.9,32.54,32.54,0,0,1,4.06.25l306.27,39.06c3.21.4,5.72,3,6.41,6.52a8.59,8.59,0,0,1-3.43,8.9l-6.69,4.46Z"/><path class="cls-9" d="M593.34,242.47l102.53-66.24V3.91c0-3-2.92-4.9-5.21-3.37L659.81,20.4c-11.19,7.24-19.61,18.78-23.65,32.5l-27.29,91.65-3.61,12.09-1.21,4.19-14.79,49.74-6.62,22.15C580.55,239.85,587.46,246.22,593.34,242.47Z"/><path class="cls-3" d="M24.66,610.29,19,606.62l4.25-6.77q4.71-7.53,9.88-14.68c1.95,1.15,4,2.13,5.95,3.13Z"/><path class="cls-3" d="M92.42,597.88A92.15,92.15,0,0,0,103.79,596a4.7,4.7,0,0,1,5.35,2.66c2.18,4.46,5.92,12.08,8.39,17.14,1.32,2.7.19,6.12-2.41,7.1a95.51,95.51,0,0,1-18.77,4.93Z"/><path class="cls-3" d="M46.14,591.49a94.73,94.73,0,0,0,38.88,7l4,30.17A95.84,95.84,0,0,1,31.15,614.4Z"/></g></g></g></svg>